<?xml version="1.0" encoding="iso-8859-1"?>
<!-- Generator: Adobe Illustrator 17.1.0, SVG Export Plug-In . SVG Version: 6.00 Build 0)  -->
<!DOCTYPE svg PUBLIC "-//W3C//DTD SVG 1.1//EN" "http://www.w3.org/Graphics/SVG/1.1/DTD/svg11.dtd">
<svg version="1.1" id="Capa_1" xmlns="http://www.w3.org/2000/svg" xmlns:xlink="http://www.w3.org/1999/xlink" x="0px" y="0px"
	 viewBox="0 0 296 296" style="enable-background:new 0 0 296 296;" xml:space="preserve">
<g>
	<path d="M270.054,134h-29.362c-3.84-47.648-43.721-85.121-92.358-85.121S59.814,86.352,55.975,134H26.612
		C12.099,134,0,145.766,0,160.279v27.441C0,202.234,12.099,214,26.612,214h6.308c3.025,18.752,19.318,33.121,38.911,33.121
		c19.595,0,35.89-14.369,38.915-33.121h75.174c3.025,18.752,19.318,33.121,38.911,33.121c19.595,0,35.89-14.369,38.915-33.121h6.308
		C284.567,214,296,202.234,296,187.721v-27.441C296,145.766,284.567,134,270.054,134z M224.831,231.121
		c-12.914,0-23.42-10.506-23.42-23.419c0-12.916,10.506-23.424,23.42-23.424c12.916,0,23.424,10.508,23.424,23.424
		C248.255,220.615,237.747,231.121,224.831,231.121z M71.831,231.121c-12.914,0-23.42-10.506-23.42-23.419
		c0-12.916,10.506-23.424,23.42-23.424c12.916,0,23.424,10.508,23.424,23.424C95.255,220.615,84.747,231.121,71.831,231.121z
		 M172.333,158c0,4.418-3.582,8-8,8c-4.418,0-8-3.582-8-8s3.582-8,8-8C168.751,150,172.333,153.582,172.333,158z M156,134V81.421
		c28,3.604,49.127,25.301,52.525,52.579H156z M140,81.421V134H88.141C91.539,106.722,113,85.024,140,81.421z"/>
</g>
<g>
</g>
<g>
</g>
<g>
</g>
<g>
</g>
<g>
</g>
<g>
</g>
<g>
</g>
<g>
</g>
<g>
</g>
<g>
</g>
<g>
</g>
<g>
</g>
<g>
</g>
<g>
</g>
<g>
</g>
</svg>
