<?xml version="1.0" encoding="iso-8859-1"?>
<!-- Generator: Adobe Illustrator 19.0.0, SVG Export Plug-In . SVG Version: 6.00 Build 0)  -->
<svg version="1.1" id="Capa_1" xmlns="http://www.w3.org/2000/svg" xmlns:xlink="http://www.w3.org/1999/xlink" x="0px" y="0px"
	 viewBox="0 0 370 370" style="enable-background:new 0 0 370 370;" xml:space="preserve">
<path id="XMLID_15_" d="M275.134,126.591L257.757,0H112.243L94.866,126.591c-5.252,24.172-3.581,48.57,4.721,68.771
	c9.483,23.08,26.773,39.796,49.998,48.343c6.633,2.441,13.463,4.157,20.415,5.18V340h-35v30h100v-30h-35v-91.115
	c6.952-1.023,13.782-2.739,20.415-5.18c23.225-8.547,40.515-25.263,49.998-48.343C278.715,175.161,280.386,150.763,275.134,126.591z
	 M231.593,30l12.477,90.889H125.93L138.407,30H231.593z M210.054,215.55C202.031,218.503,193.602,220,185,220
	s-17.031-1.497-25.055-4.45c-29.684-10.924-38.96-38.692-38.016-64.661h126.142C249.015,176.858,239.738,204.627,210.054,215.55z"/>
<g>
</g>
<g>
</g>
<g>
</g>
<g>
</g>
<g>
</g>
<g>
</g>
<g>
</g>
<g>
</g>
<g>
</g>
<g>
</g>
<g>
</g>
<g>
</g>
<g>
</g>
<g>
</g>
<g>
</g>
</svg>
